<mxfile host="app.diagrams.net" modified="2023-10-19T17:16:24.894Z" agent="Mozilla/5.0 (X11; Linux x86_64) AppleWebKit/537.36 (KHTML, like Gecko) Chrome/117.0.0.0 Safari/537.36" etag="2drRMYNbvgtSPLCFWMhl" version="21.7.5" type="github">
  <diagram name="Page-1" id="vkHzQCbSwUwnpKjjrnXL">
    <mxGraphModel dx="1674" dy="806" grid="1" gridSize="10" guides="1" tooltips="1" connect="1" arrows="1" fold="1" page="1" pageScale="1" pageWidth="850" pageHeight="1100" math="0" shadow="0">
      <root>
        <mxCell id="0" />
        <mxCell id="1" parent="0" />
        <mxCell id="UBPb5DnGjlW6-33cPI-W-14" style="edgeStyle=orthogonalEdgeStyle;rounded=0;orthogonalLoop=1;jettySize=auto;html=1;entryX=0.5;entryY=1;entryDx=0;entryDy=0;" edge="1" parent="1" source="UBPb5DnGjlW6-33cPI-W-3" target="UBPb5DnGjlW6-33cPI-W-13">
          <mxGeometry relative="1" as="geometry" />
        </mxCell>
        <mxCell id="UBPb5DnGjlW6-33cPI-W-18" style="edgeStyle=orthogonalEdgeStyle;rounded=0;orthogonalLoop=1;jettySize=auto;html=1;entryX=0;entryY=0.5;entryDx=0;entryDy=0;" edge="1" parent="1" source="UBPb5DnGjlW6-33cPI-W-3" target="UBPb5DnGjlW6-33cPI-W-16">
          <mxGeometry relative="1" as="geometry" />
        </mxCell>
        <mxCell id="UBPb5DnGjlW6-33cPI-W-3" value="Actor" style="shape=umlActor;verticalLabelPosition=bottom;verticalAlign=top;html=1;outlineConnect=0;" vertex="1" parent="1">
          <mxGeometry x="92.5" y="280" width="50" height="100" as="geometry" />
        </mxCell>
        <mxCell id="UBPb5DnGjlW6-33cPI-W-9" value="" style="swimlane;startSize=0;" vertex="1" parent="1">
          <mxGeometry x="320" y="160" width="320" height="270" as="geometry" />
        </mxCell>
        <mxCell id="UBPb5DnGjlW6-33cPI-W-16" value="Creates Resource" style="rounded=1;whiteSpace=wrap;html=1;" vertex="1" parent="UBPb5DnGjlW6-33cPI-W-9">
          <mxGeometry x="90" y="30" width="120" height="60" as="geometry" />
        </mxCell>
        <mxCell id="UBPb5DnGjlW6-33cPI-W-36" style="edgeStyle=orthogonalEdgeStyle;rounded=0;orthogonalLoop=1;jettySize=auto;html=1;entryX=0.5;entryY=0;entryDx=0;entryDy=0;" edge="1" parent="UBPb5DnGjlW6-33cPI-W-9" source="UBPb5DnGjlW6-33cPI-W-17" target="UBPb5DnGjlW6-33cPI-W-35">
          <mxGeometry relative="1" as="geometry" />
        </mxCell>
        <mxCell id="UBPb5DnGjlW6-33cPI-W-17" value="Resource Opened" style="rounded=1;whiteSpace=wrap;html=1;" vertex="1" parent="UBPb5DnGjlW6-33cPI-W-9">
          <mxGeometry x="90" y="110" width="120" height="60" as="geometry" />
        </mxCell>
        <mxCell id="UBPb5DnGjlW6-33cPI-W-33" value="App" style="text;html=1;align=center;verticalAlign=middle;resizable=0;points=[];autosize=1;strokeColor=none;fillColor=none;" vertex="1" parent="UBPb5DnGjlW6-33cPI-W-9">
          <mxGeometry x="25" y="125" width="40" height="30" as="geometry" />
        </mxCell>
        <mxCell id="UBPb5DnGjlW6-33cPI-W-35" value="Montioring" style="rounded=1;whiteSpace=wrap;html=1;" vertex="1" parent="UBPb5DnGjlW6-33cPI-W-9">
          <mxGeometry x="90" y="200" width="120" height="60" as="geometry" />
        </mxCell>
        <mxCell id="UBPb5DnGjlW6-33cPI-W-23" style="edgeStyle=orthogonalEdgeStyle;rounded=0;orthogonalLoop=1;jettySize=auto;html=1;" edge="1" parent="1" source="UBPb5DnGjlW6-33cPI-W-10">
          <mxGeometry relative="1" as="geometry">
            <mxPoint x="380" y="70" as="targetPoint" />
          </mxGeometry>
        </mxCell>
        <mxCell id="UBPb5DnGjlW6-33cPI-W-10" value="External Mail Provider" style="rounded=0;whiteSpace=wrap;html=1;" vertex="1" parent="1">
          <mxGeometry x="50" y="40" width="135" height="60" as="geometry" />
        </mxCell>
        <mxCell id="UBPb5DnGjlW6-33cPI-W-20" style="edgeStyle=orthogonalEdgeStyle;rounded=0;orthogonalLoop=1;jettySize=auto;html=1;entryX=0.5;entryY=1;entryDx=0;entryDy=0;" edge="1" parent="1" source="UBPb5DnGjlW6-33cPI-W-13" target="UBPb5DnGjlW6-33cPI-W-10">
          <mxGeometry relative="1" as="geometry" />
        </mxCell>
        <mxCell id="UBPb5DnGjlW6-33cPI-W-13" value="Email" style="ellipse;whiteSpace=wrap;html=1;aspect=fixed;" vertex="1" parent="1">
          <mxGeometry x="77.5" y="150" width="80" height="80" as="geometry" />
        </mxCell>
        <mxCell id="UBPb5DnGjlW6-33cPI-W-19" style="edgeStyle=orthogonalEdgeStyle;rounded=0;orthogonalLoop=1;jettySize=auto;html=1;entryX=1;entryY=0.5;entryDx=0;entryDy=0;" edge="1" parent="1" source="UBPb5DnGjlW6-33cPI-W-16" target="UBPb5DnGjlW6-33cPI-W-13">
          <mxGeometry relative="1" as="geometry">
            <Array as="points">
              <mxPoint x="470" y="130" />
              <mxPoint x="284" y="130" />
              <mxPoint x="284" y="190" />
            </Array>
          </mxGeometry>
        </mxCell>
        <mxCell id="UBPb5DnGjlW6-33cPI-W-27" style="edgeStyle=orthogonalEdgeStyle;rounded=0;orthogonalLoop=1;jettySize=auto;html=1;" edge="1" parent="1" source="UBPb5DnGjlW6-33cPI-W-21">
          <mxGeometry relative="1" as="geometry">
            <mxPoint x="470" y="60" as="targetPoint" />
          </mxGeometry>
        </mxCell>
        <mxCell id="UBPb5DnGjlW6-33cPI-W-21" value="Actor" style="shape=umlActor;verticalLabelPosition=bottom;verticalAlign=top;html=1;outlineConnect=0;" vertex="1" parent="1">
          <mxGeometry x="620" y="30" width="30" height="60" as="geometry" />
        </mxCell>
        <mxCell id="UBPb5DnGjlW6-33cPI-W-24" value="Email" style="ellipse;whiteSpace=wrap;html=1;aspect=fixed;" vertex="1" parent="1">
          <mxGeometry x="385" y="30" width="80" height="80" as="geometry" />
        </mxCell>
        <mxCell id="UBPb5DnGjlW6-33cPI-W-28" value="Opens" style="text;html=1;align=center;verticalAlign=middle;resizable=0;points=[];autosize=1;strokeColor=none;fillColor=none;" vertex="1" parent="1">
          <mxGeometry x="510" y="28" width="60" height="30" as="geometry" />
        </mxCell>
        <mxCell id="UBPb5DnGjlW6-33cPI-W-29" value="Send" style="text;html=1;align=center;verticalAlign=middle;resizable=0;points=[];autosize=1;strokeColor=none;fillColor=none;" vertex="1" parent="1">
          <mxGeometry x="215" y="38" width="50" height="30" as="geometry" />
        </mxCell>
        <mxCell id="UBPb5DnGjlW6-33cPI-W-30" value="Send" style="text;html=1;align=center;verticalAlign=middle;resizable=0;points=[];autosize=1;strokeColor=none;fillColor=none;" vertex="1" parent="1">
          <mxGeometry x="120" y="120" width="50" height="30" as="geometry" />
        </mxCell>
        <mxCell id="UBPb5DnGjlW6-33cPI-W-31" value="Create" style="text;html=1;align=center;verticalAlign=middle;resizable=0;points=[];autosize=1;strokeColor=none;fillColor=none;" vertex="1" parent="1">
          <mxGeometry x="115" y="240" width="60" height="30" as="geometry" />
        </mxCell>
        <mxCell id="UBPb5DnGjlW6-33cPI-W-32" style="edgeStyle=orthogonalEdgeStyle;rounded=0;orthogonalLoop=1;jettySize=auto;html=1;entryX=0.95;entryY=0.7;entryDx=0;entryDy=0;entryPerimeter=0;" edge="1" parent="1" source="UBPb5DnGjlW6-33cPI-W-17" target="UBPb5DnGjlW6-33cPI-W-24">
          <mxGeometry relative="1" as="geometry">
            <Array as="points">
              <mxPoint x="590" y="300" />
              <mxPoint x="590" y="86" />
            </Array>
          </mxGeometry>
        </mxCell>
      </root>
    </mxGraphModel>
  </diagram>
</mxfile>
